<svg xmlns="http://www.w3.org/2000/svg" viewBox="2464 3361.551 101.449 101.449"><defs><style>.cls-1{fill:#e3f811}</style></defs><g id="calendar" transform="translate(2464 3361.551)"><g id="Group_20" data-name="Group 20"><g id="Group_19" data-name="Group 19"><path id="Path_20" data-name="Path 20" class="cls-1" d="M89.561 7.926h-4.756V0H76.88v7.926H24.57V0h-7.926v7.926h-4.755A11.9 11.9 0 0 0 0 19.814v69.747a11.9 11.9 0 0 0 11.889 11.889h77.672a11.9 11.9 0 0 0 11.889-11.889V19.814A11.9 11.9 0 0 0 89.561 7.926zm3.963 81.635a3.967 3.967 0 0 1-3.963 3.963H11.889a3.967 3.967 0 0 1-3.963-3.963v-52.31h85.6zm0-60.236H7.926v-9.511a3.967 3.967 0 0 1 3.963-3.963h4.755v7.926h7.926v-7.926h52.31v7.926h7.926v-7.926h4.755a3.967 3.967 0 0 1 3.963 3.963z"/></g></g><g id="Group_22" data-name="Group 22" transform="translate(15.059 45.573)"><g id="Group_21" data-name="Group 21"><path id="Rectangle_7" data-name="Rectangle 7" class="cls-1" d="M0 0h7.926v7.926H0z"/></g></g><g id="Group_24" data-name="Group 24" transform="translate(30.91 45.573)"><g id="Group_23" data-name="Group 23"><path id="Rectangle_8" data-name="Rectangle 8" class="cls-1" d="M0 0h7.926v7.926H0z"/></g></g><g id="Group_26" data-name="Group 26" transform="translate(46.762 45.573)"><g id="Group_25" data-name="Group 25"><path id="Rectangle_9" data-name="Rectangle 9" class="cls-1" d="M0 0h7.926v7.926H0z"/></g></g><g id="Group_28" data-name="Group 28" transform="translate(62.613 45.573)"><g id="Group_27" data-name="Group 27"><path id="Rectangle_10" data-name="Rectangle 10" class="cls-1" d="M0 0h7.926v7.926H0z"/></g></g><g id="Group_30" data-name="Group 30" transform="translate(78.465 45.573)"><g id="Group_29" data-name="Group 29"><path id="Rectangle_11" data-name="Rectangle 11" class="cls-1" d="M0 0h7.926v7.926H0z"/></g></g><g id="Group_32" data-name="Group 32" transform="translate(15.059 61.424)"><g id="Group_31" data-name="Group 31"><path id="Rectangle_12" data-name="Rectangle 12" class="cls-1" d="M0 0h7.926v7.926H0z"/></g></g><g id="Group_34" data-name="Group 34" transform="translate(30.91 61.424)"><g id="Group_33" data-name="Group 33"><path id="Rectangle_13" data-name="Rectangle 13" class="cls-1" d="M0 0h7.926v7.926H0z"/></g></g><g id="Group_36" data-name="Group 36" transform="translate(46.762 61.424)"><g id="Group_35" data-name="Group 35"><path id="Rectangle_14" data-name="Rectangle 14" class="cls-1" d="M0 0h7.926v7.926H0z"/></g></g><g id="Group_38" data-name="Group 38" transform="translate(62.613 61.424)"><g id="Group_37" data-name="Group 37"><path id="Rectangle_15" data-name="Rectangle 15" class="cls-1" d="M0 0h7.926v7.926H0z"/></g></g><g id="Group_40" data-name="Group 40" transform="translate(15.059 77.276)"><g id="Group_39" data-name="Group 39"><path id="Rectangle_16" data-name="Rectangle 16" class="cls-1" d="M0 0h7.926v7.926H0z"/></g></g><g id="Group_42" data-name="Group 42" transform="translate(30.91 77.276)"><g id="Group_41" data-name="Group 41"><path id="Rectangle_17" data-name="Rectangle 17" class="cls-1" d="M0 0h7.926v7.926H0z"/></g></g><g id="Group_44" data-name="Group 44" transform="translate(46.762 77.276)"><g id="Group_43" data-name="Group 43"><path id="Rectangle_18" data-name="Rectangle 18" class="cls-1" d="M0 0h7.926v7.926H0z"/></g></g><g id="Group_46" data-name="Group 46" transform="translate(62.613 77.276)"><g id="Group_45" data-name="Group 45"><path id="Rectangle_19" data-name="Rectangle 19" class="cls-1" d="M0 0h7.926v7.926H0z"/></g></g><g id="Group_48" data-name="Group 48" transform="translate(78.465 61.424)"><g id="Group_47" data-name="Group 47"><path id="Rectangle_20" data-name="Rectangle 20" class="cls-1" d="M0 0h7.926v7.926H0z"/></g></g></g></svg>