<svg xmlns="http://www.w3.org/2000/svg" viewBox="2890 3369.4 105.3 85.4"><defs><style>.cls-1{fill:#e3f811}</style></defs><g id="Group_51" data-name="Group 51" transform="translate(2890 3369.4)"><g id="Group_50" data-name="Group 50"><path id="Path_23" data-name="Path 23" class="cls-1" d="M152.5 41.2H80.2a7.8 7.8 0 0 0-7.8 7.8V94a7.8 7.8 0 0 0 7.8 7.8H130l11.3 11.4a2.4 2.4 0 0 0 1.7.7 2.5 2.5 0 0 0 2.5-2.5v-9.6h7a7.8 7.8 0 0 0 7.8-7.8V49a7.8 7.8 0 0 0-7.8-7.8zM91.3 79.8a7.2 7.2 0 1 1 7.2-7.2 7.3 7.3 0 0 1-7.2 7.2zm25.3 0a7.2 7.2 0 1 1 7.3-7.2 7.3 7.3 0 0 1-7.3 7.2zm25.3 0a7.2 7.2 0 1 1 7.2-7.2 7.3 7.3 0 0 1-7.2 7.2z" transform="translate(-55 -41.2)"/><path id="Path_24" data-name="Path 24" class="cls-1" d="M13 212.5v-15.3H5.1a5.1 5.1 0 0 0-5.1 5.1v29.5a5 5 0 0 0 5.1 5.3h4.5v6.3a1.7 1.7 0 0 0 1.7 1.7 1.6 1.6 0 0 0 1.1-.5l7.4-7.4h32.8a5.1 5.1 0 0 0 5.1-5.1v-7.3H25.2A12.3 12.3 0 0 1 13 212.5z" transform="translate(0 -159.6)"/></g></g></svg>