<?xml version="1.0" encoding="iso-8859-1"?>
<!-- Generator: Adobe Illustrator 16.0.0, SVG Export Plug-In . SVG Version: 6.00 Build 0)  -->
<!DOCTYPE svg PUBLIC "-//W3C//DTD SVG 1.1//EN" "http://www.w3.org/Graphics/SVG/1.1/DTD/svg11.dtd">
<svg version="1.1" id="Capa_1" xmlns="http://www.w3.org/2000/svg" xmlns:xlink="http://www.w3.org/1999/xlink" x="0px" y="0px"
	 width="45.833px" height="45.834px" viewBox="0 0 45.833 45.834" style="enable-background:new 0 0 45.833 45.834;"
	 xml:space="preserve">
<g>
	<g>
		<path d="M43.82,20.98c-0.674-0.361-1.481-0.322-2.119,0.104l-11.145,7.438v-5.709c0-0.766-0.429-1.47-1.104-1.831
			c-0.675-0.361-1.497-0.321-2.136,0.104l-11.46,7.638v-16c0-0.425-0.326-0.802-0.75-0.802H1.694c-0.424,0-0.769,0.377-0.769,0.802
			V45.07c0,0.424,0.345,0.764,0.769,0.764h42.463c0.424,0,0.751-0.34,0.751-0.764V22.81C44.909,22.045,44.497,21.341,43.82,20.98z
			 M25.695,36.266c0,0.299-0.242,0.541-0.543,0.541h-3.775c-0.3,0-0.542-0.242-0.542-0.541v-3.778c0-0.3,0.242-0.542,0.542-0.542
			h3.775c0.301,0,0.543,0.242,0.543,0.542V36.266z M39.814,36.266c0,0.299-0.24,0.541-0.541,0.541h-3.776
			c-0.3,0-0.542-0.242-0.542-0.541v-3.778c0-0.3,0.242-0.542,0.542-0.542h3.776c0.301,0,0.541,0.242,0.541,0.542V36.266z"/>
		<path d="M1.694,8.912h13.412c0.424,0,0.75-0.292,0.75-0.716V2.072C15.856,0.925,14.945,0,13.797,0H3.003
			C1.856,0,0.926,0.925,0.926,2.072v6.125C0.926,8.62,1.271,8.912,1.694,8.912z"/>
	</g>
</g>
<g>
</g>
<g>
</g>
<g>
</g>
<g>
</g>
<g>
</g>
<g>
</g>
<g>
</g>
<g>
</g>
<g>
</g>
<g>
</g>
<g>
</g>
<g>
</g>
<g>
</g>
<g>
</g>
<g>
</g>
</svg>
