<svg xmlns="http://www.w3.org/2000/svg" width="45.83" height="45.83"><path d="M43.82 20.98a2.05 2.05 0 0 0-2.12.1l-11.14 7.44v-5.7a2.08 2.08 0 0 0-3.24-1.73l-11.46 7.63v-16c0-.42-.33-.8-.75-.8H1.69c-.42 0-.77.38-.77.8v32.35c0 .42.35.76.77.76h42.47c.42 0 .75-.34.75-.76V22.81c0-.76-.41-1.47-1.09-1.83zM25.69 36.27c0 .3-.24.54-.54.54h-3.77a.54.54 0 0 1-.54-.54v-3.78c0-.3.24-.54.54-.54h3.77c.3 0 .55.24.55.54v3.78zm14.12 0c0 .3-.24.54-.54.54H35.5a.54.54 0 0 1-.55-.54v-3.78c0-.3.25-.54.55-.54h3.77c.3 0 .54.24.54.54v3.78zM1.7 8.91h13.4c.43 0 .76-.29.76-.71V2.07C15.86.93 14.95 0 13.8 0H3C1.86 0 .93.93.93 2.07V8.2c0 .42.34.71.76.71z"/></svg>