<svg xmlns="http://www.w3.org/2000/svg" viewBox="0 0 512 512"><path d="M376 33c-60.66 0-99.6 42.01-120 79.85C235.6 75 196.66 33 136 33 59.04 33 0 95.45 0 178.27c0 21.6 4.33 41.56 12.3 60.73h114.43l25.85-51.7c5.1-10.18 21.74-10.18 26.84 0L226 280.45l16.58-33.17c5.1-10.16 21.74-10.16 26.84 0L286 280.46l46.58-93.17c5.1-10.16 21.74-10.16 26.84 0L385.27 239h114.44c7.96-19.17 12.29-39.12 12.29-60.73C512 95.45 452.96 33 376 33z"/><path d="M376 269a15 15 0 0 1-13.42-8.3L346 227.55l-46.58 93.17a15 15 0 0 1-26.84 0L256 287.55l-16.58 33.16c-5.1 10.17-21.74 10.17-26.84 0L166 227.55l-16.58 33.16A15 15 0 0 1 136 269H28.04c30.87 48.57 86.47 94.71 156.02 153.41a6008.46 6008.46 0 0 1 62.11 52.93 14.98 14.98 0 0 0 19.66 0 6031.5 6031.5 0 0 1 62.1-52.93C397.5 363.71 453.1 317.57 483.97 269H376z"/></svg>