<svg xmlns="http://www.w3.org/2000/svg" viewBox="2918 649.397 63.201 83.885">
  <defs>
    <style>
      .cls-1 {
        fill: #ffe200;
      }

      .cls-2 {
        fill: #fff;
      }
    </style>
  </defs>
  <g id="Icon" transform="translate(2917.703 649.397)">
    <g id="Group_1" data-name="Group 1" transform="translate(0.297)">
      <path id="Path_1" data-name="Path 1" class="cls-1" d="M97.916,53.041C97.916,36.264,69.081,3.5,66.722.875h0S35,35.739,35,53.041A31.549,31.549,0,0,0,66.46,84.5a14.948,14.948,0,0,0,3.408-.262.963.963,0,0,0,.786-.262c.786,0,1.573-.262,2.359-.262.262,0,.524-.262,1.048-.262.786-.262,1.573-.262,2.359-.524.262,0,.524-.262.786-.262l2.359-.786a.915.915,0,0,0,.524-.262A10.626,10.626,0,0,0,82.45,80.3c.262,0,.262-.262.524-.262l2.359-1.573a.257.257,0,0,0,.262-.262c.786-.524,1.573-1.311,2.359-1.835h0A32.9,32.9,0,0,0,97.916,53.041Z" transform="translate(-34.716 -0.613)"/>
      <path id="Path_2" data-name="Path 2" class="cls-1" d="M171.509,140.014a5.243,5.243,0,1,0,5.243,5.243A5.258,5.258,0,0,0,171.509,140.014Z" transform="translate(-126.945 -98.072)"/>
      <path id="Path_3" data-name="Path 3" class="cls-1" d="M69.082,81.263A31.549,31.549,0,0,1,37.625,49.806c0-14.418,21.5-40.894,29.1-49.544L66.461,0S35,35.127,35,52.428A31.549,31.549,0,0,0,66.461,83.885,32.033,32.033,0,0,0,90.053,73.4,32.848,32.848,0,0,1,69.082,81.263Z" transform="translate(-35.004)"/>
    </g>
    <g id="down-arrow" transform="translate(11.934 46.73)">
      <path id="Path_4" data-name="Path 4" class="cls-2" d="M47.12,33.825a1.455,1.455,0,0,0-2.056,0L26.991,51.935,8.881,33.825a1.453,1.453,0,0,0-2.056,2.056l19.1,19.1a1.419,1.419,0,0,0,1.028.425,1.48,1.48,0,0,0,1.028-.425l19.1-19.1a1.424,1.424,0,0,0,.035-2.056Z" transform="translate(-6.4 -33.4)"/>
    </g>
  </g>
</svg>
