<?xml version="1.0" encoding="utf-8"?>
<!-- Generator: Adobe Illustrator 21.0.0, SVG Export Plug-In . SVG Version: 6.00 Build 0)  -->
<svg version="1.1" id="Слой_1" xmlns="http://www.w3.org/2000/svg" xmlns:xlink="http://www.w3.org/1999/xlink" x="0px" y="0px"
	 viewBox="0 0 63.2 83.9" style="enable-background:new 0 0 63.2 83.9;" xml:space="preserve">
<style type="text/css">
	.st0{fill:#FDB04D;}
</style>
<g id="Icon" transform="translate(2917.703 649.397)">
	<g id="Group_1" transform="translate(0.297)">
		<path id="Path_1" class="st0" d="M-2854.8-597c0-16.8-28.8-49.5-31.2-52.2l0,0c0,0-31.7,34.9-31.7,52.2
			c0,17.4,14.1,31.4,31.5,31.5c1.1,0,2.3,0,3.4-0.3c0.3,0,0.6-0.1,0.8-0.3c0.8,0,1.6-0.3,2.4-0.3c0.3,0,0.5-0.3,1-0.3
			c0.8-0.3,1.6-0.3,2.4-0.5c0.3,0,0.5-0.3,0.8-0.3l2.4-0.8c0.2,0,0.4-0.1,0.5-0.3c0.8-0.3,1.6-0.8,2.4-1.3c0.3,0,0.3-0.3,0.5-0.3
			l2.4-1.6c0.1,0,0.3-0.1,0.3-0.3c0,0,0,0,0,0c0.8-0.5,1.6-1.3,2.4-1.8l0,0C-2858.5-579.8-2854.9-588.2-2854.8-597z"/>
		<path id="Path_2" class="st0" d="M-2873.4-607.5c-2.9,0-5.2,2.3-5.2,5.2s2.3,5.2,5.2,5.2c2.9,0,5.2-2.3,5.2-5.2c0,0,0,0,0,0
			C-2868.2-605.1-2870.5-607.4-2873.4-607.5z"/>
		<path id="Path_3" class="st0" d="M-2883.9-568.1c-17.4-0.1-31.4-14.1-31.5-31.5c0-14.4,21.5-40.9,29.1-49.5l-0.3-0.3
			c0,0-31.5,35.1-31.5,52.4c0.1,17.4,14.1,31.4,31.5,31.5c9,0,17.5-3.8,23.6-10.5C-2868.8-571-2876.2-568.2-2883.9-568.1z"/>
	</g>
	<g id="down-arrow" transform="translate(11.934 46.73)">
		<path id="Path_4" class="st0" d="M-2877.3-649c-0.6-0.6-1.5-0.6-2.1,0l-18.1,18.1l-18.1-18.1c-0.6-0.6-1.5-0.6-2.1,0
			c-0.6,0.6-0.6,1.5,0,2.1l19.1,19.1c0.3,0.3,0.6,0.4,1,0.4c0.4,0,0.8-0.2,1-0.4l19.1-19.1C-2876.7-647.5-2876.7-648.4-2877.3-649
			C-2877.3-648.9-2877.3-649-2877.3-649L-2877.3-649z"/>
	</g>
</g>
</svg>
