<svg xmlns="http://www.w3.org/2000/svg" viewBox="3309 2967.4 121.24 86.6"><defs><style>.cls-1{fill:#e3f811}.cls-3{fill:#eaead7}</style></defs><g id="notes" transform="translate(3309 2959.4)"><path id="XMLID_115_" class="cls-1" transform="translate(0 25.32)" d="M0 0h121.24v69.28H0z"/><path id="XMLID_114_" class="cls-1" d="M110.25 20.66H2V12z" transform="translate(2.33 4.66)"/><path id="XMLID_79_" d="M71.3 47.15A28.14 28.14 0 1 1 43.14 19a28.14 28.14 0 0 1 28.14 28.15" transform="translate(17.48 12.81)" fill="#686a4e"/><path id="XMLID_112_" class="cls-3" d="M39.84 68.63a28.1 28.1 0 0 1 0-47.63h-21.9c.03.36.05.72.05 1.08A11.9 11.9 0 0 1 6.09 34c-.37 0-.73-.02-1.09-.05V55.7c.36-.04.72-.06 1.08-.06A11.9 11.9 0 0 1 18 67.54c0 .37-.02.73-.05 1.1z" transform="translate(5.83 15.14)"/><path id="XMLID_111_" class="cls-3" d="M68.67 33.99a11.9 11.9 0 0 1-11.91-11.9c0-.37.02-.73.05-1.09h-21.9a28.1 28.1 0 0 1 0 47.63h21.9a12.1 12.1 0 0 1-.05-1.08 11.9 11.9 0 0 1 11.9-11.9c.37 0 .73.01 1.1.04V33.95c-.37.03-.73.05-1.1.05" transform="translate(40.67 15.14)"/><path id="XMLID_110_" class="cls-3" d="M8.41 29.82a5.41 5.41 0 1 1 5.42-5.4 5.42 5.42 0 0 1-5.42 5.4" transform="translate(3.5 12.81)"/><path id="XMLID_109_" class="cls-3" d="M53.41 29.82a5.41 5.41 0 1 1 5.42-5.4 5.42 5.42 0 0 1-5.42 5.4" transform="translate(55.92 12.81)"/><path id="XMLID_108_" class="cls-3" d="M8.41 50.83a5.41 5.41 0 1 1 5.42-5.42 5.42 5.42 0 0 1-5.42 5.42" transform="translate(3.5 37.28)"/><path id="XMLID_107_" class="cls-3" d="M53.41 50.83a5.41 5.41 0 1 1 5.42-5.42 5.42 5.42 0 0 1-5.42 5.42" transform="translate(55.92 37.28)"/><path id="XMLID_106_" class="cls-1" d="M5 8v9.18l101.76 8.14h6.5z" transform="translate(5.83)"/><path id="XMLID_105_" class="cls-3" d="M48.5 47.11a3.77 3.77 0 0 0 2.68-3.58v-1.88a3.77 3.77 0 0 0-2.04-3.33c-.83-7.08-5.51-9.95-13.04-9.95-.36 0-.71 0-1.05.04a11.32 11.32 0 0 1-7.28-1.72 9.46 9.46 0 0 1-2.16-1.9.38.38 0 0 0-.67.28c.08.66.19 1.43.36 2.27.62 3.13.25 2.67-.96 5.62a19.54 19.54 0 0 0-1.3 5.37 3.77 3.77 0 0 0-2.02 3.31v1.89a3.77 3.77 0 0 0 2.66 3.58c1.02 3.82 3.12 6.87 6.76 8.44v2.16a1.45 1.45 0 0 1-.8 1.3l-7.28 3.58a6.08 6.08 0 0 0-1.62 1.33 28.09 28.09 0 0 0 30.9.31 6.17 6.17 0 0 0-2-1.6l-7.1-3.62a1.45 1.45 0 0 1-.79-1.29v-2.17c3.65-1.57 5.74-4.62 6.76-8.44" transform="translate(24.17 19.4)"/></g></svg>