<svg xmlns="http://www.w3.org/2000/svg" viewBox="3282 1993 198 198"><defs><style>.cls-2{fill:#f9faea}</style><filter id="Path_50" x="3282" y="1993" width="198" height="198" filterUnits="userSpaceOnUse"><feOffset/><feGaussianBlur stdDeviation="5" result="blur"/><feFlood flood-opacity=".6"/><feComposite operator="in" in2="blur"/><feComposite in="SourceGraphic"/></filter></defs><g id="Group_103" data-name="Group 103" transform="translate(2850 -244)"><g transform="translate(-2850 244)" filter="url(#Path_50)"><path id="Path_50-2" data-name="Path 50" d="M84 0A84 84 0 1 1 0 84 84 84 0 0 1 84 0z" transform="translate(3297 2008)" fill="#a29827"/></g><g id="bottle-of-glass-with-massage-oil-of-aromatherapy-for-spa" transform="translate(490 2279)"><g id="Group_9" data-name="Group 9"><path id="Path_5" data-name="Path 5" class="cls-2" d="M104.97 83.28l-.17-.1-.17-.09c-.3-.15-8.04-4.33-8.04-16.65a44.37 44.37 0 0 1 .72-9 8 8 0 0 0 3.64-3.9l.24-.75.06-.34a5.76 5.76 0 0 0 .11-1.03c0-3.98-3.67-6.48-8.6-7.89-.54.16-1.04.31-1.7.44V47c3.96 1.03 6.55 2.63 6.55 4.42a2.2 2.2 0 0 1-.3 1.02l-.38.47-.41.45-.8.6-.32.2a12.57 12.57 0 0 1-1.27.66c-3.09 1.35-7.92 2.24-13.4 2.24s-10.34-.89-13.42-2.24a13.27 13.27 0 0 1-1.27-.66l-.32-.2-.8-.6-.42-.45-.37-.47a2.15 2.15 0 0 1-.3-1.02c0-1.8 2.58-3.39 6.53-4.42v-3.03c-.65-.13-1.16-.28-1.7-.44-4.92 1.41-8.6 3.9-8.6 7.89a5.53 5.53 0 0 0 .11 1.03l.06.34.25.76a8.03 8.03 0 0 0 3.64 3.9 44.37 44.37 0 0 1 .72 8.99c0 12.32-7.8 16.5-8.14 16.67l-.14.07-.17.1c-10.64 6.68-16.99 17.46-16.99 28.84 0 17.9 15.06 28.17 41.3 28.17s41.32-10.27 41.32-28.17c0-11.36-6.38-22.14-17.05-28.84zm-60.54 20.66a29.02 29.02 0 0 1 3.26-7 29.58 29.58 0 0 0-3.26 7zm3.26-7a34.05 34.05 0 0 1 10.69-10.48s10.2-5 10.2-20.03a58.7 58.7 0 0 0-.39-7.26 44.58 44.58 0 0 0 12.52 1.63 44.58 44.58 0 0 0 12.51-1.63 59.11 59.11 0 0 0-.38 7.26c0 15.03 10.13 20.03 10.13 20.03a34.3 34.3 0 0 1 10.71 10.49zm66 0a29.06 29.06 0 0 1 3.28 7 29.74 29.74 0 0 0-3.29-7z" transform="translate(-39.4 -26.07)"/><path id="Path_6" data-name="Path 6" class="cls-2" d="M112.88 16.31V26c0 .93 3.8 1.7 8.48 1.7s8.48-.77 8.48-1.7V16.3c3.38-.51 5.6-1.32 5.6-2.23V2.81c0-1.54-6.3-2.81-14.08-2.81s-14.09 1.27-14.09 2.81v11.27c.01.9 2.23 1.72 5.61 2.23z" transform="translate(-80.06)"/></g></g></g></svg>