<svg xmlns="http://www.w3.org/2000/svg" viewBox="2465 2961.2 99 98.1"><defs><style>.cls-1{fill:#e3f811}</style></defs><g id="user-silhouette" transform="translate(2465 2959.3)"><g id="Group_49" data-name="Group 49" transform="translate(0 2)"><path id="Path_21" data-name="Path 21" class="cls-1" d="M135 53.9c12.3 0 22.2-11.6 22.2-26 0-19.9-9.9-26-22.2-26S112.8 8 112.8 28c0 14.4 10 26 22.2 26z" transform="translate(-85.5 -2)"/><path id="Path_22" data-name="Path 22" class="cls-1" d="M98.5 258.5l-11.2-25.2a5.6 5.6 0 0 0-2.5-2.7l-17.4-9a1.1 1.1 0 0 0-1.2 0 27.4 27.4 0 0 1-33.4 0 1.1 1.1 0 0 0-1.2 0l-17.4 9a5.6 5.6 0 0 0-2.5 2.7L.5 258.5a5.6 5.6 0 0 0 5.1 7.9h87.8a5.6 5.6 0 0 0 5.1-7.9z" transform="translate(0 -168.3)"/></g></g></svg>