<svg xmlns="http://www.w3.org/2000/svg" viewBox="2890 2955.7 105 96.3"><defs><style>.cls-1{fill:#e3f811}</style></defs><g id="Group_106" data-name="Group 106" transform="translate(2890 2953.2)"><path id="Path_18" data-name="Path 18" class="cls-1" d="M103.3 84.8V16.5h-21v68.3H77V30.5H56v54.3h-5.2V44.5h-21v40.3h-5.3V60.3h-21v24.5H1.8a1.8 1.8 0 0 0 0 3.5h101.5a1.8 1.8 0 0 0 0-3.5z" transform="translate(0 10.5)"/><path id="Path_19" data-name="Path 19" class="cls-1" d="M8.8 46.8a1.7 1.7 0 0 0 .9-.2L73 10l-4 8.7a1.7 1.7 0 0 0 1 2.3 1.7 1.7 0 0 0 .7.2 1.8 1.8 0 0 0 1.6-1l6.2-13.8v-.1a1.7 1.7 0 0 0 .1-.3 1.3 1.3 0 0 0 0-.1 1.8 1.8 0 0 0 0-.3 1.8 1.8 0 0 0 0-.3 1.5 1.5 0 0 0 0-.2 1.8 1.8 0 0 0-.1-.1v-.2h-.2a1.4 1.4 0 0 0 0-.2 1.7 1.7 0 0 0-.2-.2 1.8 1.8 0 0 0-.3-.2 1.7 1.7 0 0 0-.1 0l-.2-.1a1.7 1.7 0 0 0-.3-.1 1.1 1.1 0 0 0-.1 0l-15-1.5a1.8 1.8 0 0 0-.4 3.5l9.6 1L7.9 43.5a1.8 1.8 0 0 0 .9 3.2z" transform="translate(9)"/></g></svg>