<svg xmlns="http://www.w3.org/2000/svg" viewBox="0 0 512 512"><path d="M226.93 399.95c-19.96 18.44-47.57 22.57-72.05 10.78a65.64 65.64 0 0 1-22.17-17.2l-33.34 73.75a6.23 6.23 0 0 0 .97 6.81c.8.93 3.04 3 6.59 2l24.27-6.75a30.93 30.93 0 0 1 36.17 16.35l10.96 22.69a6.2 6.2 0 0 0 5.85 3.62 6.23 6.23 0 0 0 5.76-3.77l53.03-117.3a39.8 39.8 0 0 0-16.04 9.02zM412.63 467.28l-33.34-73.74a65.62 65.62 0 0 1-22.17 17.2c-24.49 11.78-52.1 7.65-72.05-10.8a39.79 39.79 0 0 0-16.05-9.01l53.03 117.3a6.23 6.23 0 0 0 5.76 3.77 6.2 6.2 0 0 0 5.86-3.62l10.96-22.69a30.93 30.93 0 0 1 36.17-16.35l24.27 6.76a6.23 6.23 0 0 0 6.58-2c.8-.94 2.5-3.47.98-6.82z"/><path d="M438.82 207.8c-27.69-18.97-36.28-56.61-19.56-85.71 10.05-17.5 4.82-34.78-3.43-45.12-8.24-10.34-23.93-19.28-43.22-13.38-32.08 9.83-66.88-6.92-79.2-38.14C286.01 6.69 269.23 0 256 0c-13.23 0-30 6.69-37.41 25.45-12.32 31.22-47.11 47.97-79.2 38.14-19.29-5.9-34.97 3.04-43.22 13.38s-13.48 27.63-3.43 45.12c16.72 29.1 8.13 66.74-19.56 85.7-16.65 11.4-19.43 29.24-16.49 42.14 2.94 12.9 13.2 27.76 33.14 30.8 33.17 5.07 57.24 35.26 54.8 68.73-1.46 20.12 10.75 33.43 22.67 39.17 11.92 5.73 29.93 7 44.75-6.7A64.62 64.62 0 0 1 256 364.84a64.6 64.6 0 0 1 43.95 17.09c14.82 13.7 32.83 12.44 44.75 6.7 11.92-5.74 24.13-19.05 22.66-39.17-2.44-33.47 21.64-63.65 54.81-68.72 19.95-3.05 30.2-17.92 33.14-30.81 2.94-12.9.15-30.74-16.49-42.14zM256 335.91c-72.58 0-131.62-59.04-131.62-131.62S183.42 72.68 256 72.68c72.58 0 131.62 59.05 131.62 131.62 0 72.58-59.05 131.62-131.62 131.62z"/><path d="M256 97.22c-59.05 0-107.08 48.04-107.08 107.08 0 59.05 48.03 107.08 107.08 107.08s107.08-48.03 107.08-107.08S315.04 97.22 256 97.22zm54.87 96.7l-66.64 48.68a12.27 12.27 0 0 1-17.28-2.86l-19.93-28.38a12.27 12.27 0 0 1 20.08-14.1l12.75 18.15 56.55-41.3a12.27 12.27 0 1 1 14.47 19.81z"/></svg>