<svg xmlns="http://www.w3.org/2000/svg" viewBox="2852 1993 198 198"><defs><style>.cls-2{fill:#f9faea}</style><filter id="Ellipse_2" x="2852" y="1993" width="198" height="198" filterUnits="userSpaceOnUse"><feOffset/><feGaussianBlur stdDeviation="5" result="blur"/><feFlood flood-opacity=".6"/><feComposite operator="in" in2="blur"/><feComposite in="SourceGraphic"/></filter></defs><g id="Group_104" data-name="Group 104" transform="translate(2420 -244)"><g transform="translate(-2420 244)" filter="url(#Ellipse_2)"><circle id="Ellipse_2-2" data-name="Ellipse 2" cx="84" cy="84" r="84" transform="translate(2867 2008)" fill="#a29827"/></g><g id="spa-container-of-creamy-soap" transform="translate(495 2286)"><g id="Group_10" data-name="Group 10"><path id="Path_7" data-name="Path 7" class="cls-2" d="M212.8 7.7h13.4a2.6 2.6 0 0 1 2.5 1.6l2 6.6a2.6 2.6 0 0 0 2.6 1.6h13.1A2.6 2.6 0 0 0 249 16l2.2-6.8a2.6 2.6 0 0 1 2.5-1.5h20a1.3 1.3 0 0 1 1.1.7 2.6 2.6 0 0 0 2.3 1.2h4.7c1.6 0 2.9-1.2 2.5-2.5C282.6-.3 273.5 0 273.5 0h-60.7a2.4 2.4 0 0 0-2.6 2.1v3.4a2.4 2.4 0 0 0 2.6 2.2z" transform="translate(-204.2)"/><path id="Path_8" data-name="Path 8" class="cls-2" d="M168.6 281.6h61.7c2.6 0 4.7-1.7 4.7-3.8v-50.9c0-8.5-5-17-24.8-19.1l-1.5-3.4a3.2 3.2 0 0 0-3-1.7h-12.6a3.1 3.1 0 0 0-2.9 1.7l-1.4 3.4C169 210 164 218.4 164 226.9v50.9c0 2 2 3.8 4.6 3.8z" transform="translate(-164 -181.3)"/></g></g></g></svg>