<svg xmlns="http://www.w3.org/2000/svg" width="386.86" height="386.87"><path d="M298.92 269.27l-.04.04-68.13-34.26a51.47 51.47 0 0 0-7.5-40.08l12.5-10.03a37.11 37.11 0 0 0 45.8-5.26 37.15 37.15 0 0 0 0-52.57A37.17 37.17 0 0 0 224.33 174l-11.78 9.42a51.31 51.31 0 0 0-27.44-10.97l-6.72-57.78a51.15 51.15 0 0 0 14.72-10.24 51.51 51.51 0 1 0-72.85 0 51.21 51.21 0 0 0 30.85 14.75l11.93 56.16a51.28 51.28 0 0 0-25.7 20.34L99.6 176.73c.3-5.45-1.54-11-5.71-15.18a19.86 19.86 0 0 0-28.08 28.08 19.8 19.8 0 0 0 26.73 1.12l38.4 19.28a51.66 51.66 0 0 0 .86 30.13l-51.5 36.02a51.5 51.5 0 1 0 20.4 27.42l43.45-43.46a51.26 51.26 0 0 0 27.81 14.33l2.05 24.92a33.75 33.75 0 1 0 36.48 7.45 33.42 33.42 0 0 0-20.9-9.61l-1.85-22.56a51.23 51.23 0 0 0 29.26-14.53c.9-.88 1.67-1.81 2.48-2.75l64.73 42.67a51.41 51.41 0 0 0 14.75 42.03 51.51 51.51 0 0 0 72.83-72.84 51.57 51.57 0 0 0-72.86.02z"/></svg>