<svg xmlns="http://www.w3.org/2000/svg" viewBox="2422 1993 198 198"><defs><style>.cls-2{fill:#f9faea}</style><filter id="Ellipse_2" x="2422" y="1993" width="198" height="198" filterUnits="userSpaceOnUse"><feOffset/><feGaussianBlur stdDeviation="5" result="blur"/><feFlood flood-opacity=".6"/><feComposite operator="in" in2="blur"/><feComposite in="SourceGraphic"/></filter></defs><g id="Group_105" data-name="Group 105" transform="translate(1990 -244)"><g transform="translate(-1990 244)" filter="url(#Ellipse_2)"><circle id="Ellipse_2-2" data-name="Ellipse 2" cx="84" cy="84" r="84" transform="translate(2437 2008)" fill="#a29827"/></g><g id="vitamins" transform="translate(479 2284.8)"><g id="Group_12" data-name="Group 12" transform="translate(6.8 47.6)"><g id="Group_11" data-name="Group 11"><path id="Path_9" data-name="Path 9" class="cls-2" d="M143.6 236.5H91.2a1.3 1.3 0 0 0-1.3 1.3v18a15.1 15.1 0 0 0-20.9-12 15.4 15.4 0 0 0-8.2 8.4l-2 5a1.3 1.3 0 0 0 .7 1.7l25.6 10.4a1.3 1.3 0 0 0 1.8-.7l2-5a15.1 15.1 0 0 0 1-3.7v8a1.3 1.3 0 0 0 1.3 1.4h52.4a1.3 1.3 0 0 0 1.3-1.3v-30.2a1.3 1.3 0 0 0-1.3-1.3zM131 265.8h-27.6a3 3 0 0 1 0-6H131a3 3 0 0 1 0 6zm0-9.7h-27.6a3 3 0 0 1 0-6H131a3 3 0 0 1 0 6zm0-10h-27.6a3 3 0 0 1 0-6H131a3 3 0 0 1 0 6z" transform="translate(-58.7 -236.5)"/></g></g><g id="Group_14" data-name="Group 14" transform="translate(38)"><g id="Group_13" data-name="Group 13"><path id="Path_10" data-name="Path 10" class="cls-2" d="M258.2 24.5h-.4a1.8 1.8 0 0 1-1.7-1.4l-.5-2.7h.4a4.5 4.5 0 0 0 4.5-4.5V4.5A4.5 4.5 0 0 0 256 0h-29.5a4.5 4.5 0 0 0-4.5 4.5v11.4a4.5 4.5 0 0 0 4.5 4.5h.2l-.5 2.6a1.8 1.8 0 0 1-1.7 1.4 10.6 10.6 0 0 0-7.5 3.1 11 11 0 0 0-3.3 7.8v5a1.3 1.3 0 0 0 1.4 1.3h52.3a1.3 1.3 0 0 0 1.4-1.4v-5a10.8 10.8 0 0 0-10.6-10.7z" transform="translate(-213.7)"/></g></g><g id="Group_16" data-name="Group 16" transform="translate(38 86.5)"><g id="Group_15" data-name="Group 15"><path id="Path_11" data-name="Path 11" class="cls-2" d="M267.4 429.4h-52.3a1.3 1.3 0 0 0-1.4 1.3v4.5a10.7 10.7 0 0 0 10.8 10.7H258a10.7 10.7 0 0 0 10.7-10.7v-4.5a1.3 1.3 0 0 0-1.3-1.3z" transform="translate(-213.7 -429.4)"/></g></g><g id="Group_18" data-name="Group 18" transform="translate(0 75.5)"><g id="Group_17" data-name="Group 17"><path id="Path_12" data-name="Path 12" class="cls-2" d="M56 385.3L30.4 375a1.3 1.3 0 0 0-1.8.7l-2.4 6a15.2 15.2 0 1 0 28 11.4l2.5-6a1.3 1.3 0 0 0-.7-1.7z" transform="translate(-25 -374.8)"/></g></g></g></g></svg>