<svg xmlns="http://www.w3.org/2000/svg" viewBox="3312.7 3355.6 113.3 113.3"><defs><style>.cls-1{fill:#e3f811}</style></defs><g id="world" transform="translate(3312.7 3355.5)"><g id="Group_53" data-name="Group 53" transform="translate(13.2 15.2)"><g id="Group_52" data-name="Group 52"><path id="Path_25" data-name="Path 25" class="cls-1" d="M103.2 68.3a43.4 43.4 0 1 0 43.4 43.5 43.5 43.5 0 0 0-43.4-43.5zm0 83.1a39.7 39.7 0 1 1 39.7-39.6 39.7 39.7 0 0 1-39.7 39.6z" transform="translate(-59.7 -68.3)"/></g></g><g id="Group_55" data-name="Group 55" transform="translate(47.3 19)"><g id="Group_54" data-name="Group 54"><path id="Path_26" data-name="Path 26" class="cls-1" d="M241.3 85.6a2 2 0 0 0-.6-.1l-.4-.1a1.9 1.9 0 0 0-1.8.7 1.9 1.9 0 0 0-.2 1.9c1.3 3.1 2.8 9.4.8 10.8l-4.3 1.8a9.8 9.8 0 0 0-6.1 8v.1a1.2 1.2 0 0 1-1 1 1.3 1.3 0 0 1-1.5-.6l-1.8-3.1a3.6 3.6 0 0 0-6.4.3 48 48 0 0 0-4.3 13.1 6.9 6.9 0 0 0 .7 4l2.2 4.3a9.5 9.5 0 0 0 3.4 3.8 24.8 24.8 0 0 1 5.5 4.5 11.4 11.4 0 0 0 6.9 4c-.1 3.6.1 9.4 2.5 12a4.3 4.3 0 0 0 3 1.4 8.1 8.1 0 0 0 1.1 0 9.2 9.2 0 0 0 6-2c2.9-2.5 4.4-6.8 4.5-13l2.7-12.1 1 1.7a5.8 5.8 0 0 0 8.4 1.7l4.1-3.1a1.9 1.9 0 0 0 .8-1.6 43.6 43.6 0 0 0-25.3-39.4zm18 41a2 2 0 0 1-2.9-.5l-2-3.3a3 3 0 0 0-5.5 1l-3.2 14a1.9 1.9 0 0 0 0 .5c0 4.9-1 8.4-3.1 10.1a5.4 5.4 0 0 1-4.1 1.2c-.3 0-.4.2-.8-.2-1.2-1.3-1.8-5.7-1.5-10.7a2.2 2.2 0 0 0-2.2-2.3 7.4 7.4 0 0 1-5.6-2.8 27.8 27.8 0 0 0-6.4-5.3 5.7 5.7 0 0 1-2-2.3l-2.2-4.4a3.1 3.1 0 0 1-.4-1.7c.5-3.9 2.6-8.9 3.9-11.7l1.7 2.9a5 5 0 0 0 5.5 2.3 5 5 0 0 0 4-4.2v-.3a6 6 0 0 1 3.7-4.8l4.5-1.9a2 2 0 0 0 .3 0c3.6-2.3 3.1-7.5 2.2-11.3a39.8 39.8 0 0 1 19.5 33.2z" transform="translate(-213.6 -85.4)"/></g></g><g id="Group_57" data-name="Group 57" transform="translate(14.6 63.9)"><g id="Group_56" data-name="Group 56"><path id="Path_27" data-name="Path 27" class="cls-1" d="M99.3 309.4l-1.2-1.1a15.3 15.3 0 0 0-4.8-3.3l-5.8-2.5a6.4 6.4 0 0 1-3.9-5.9v-2.8a5.3 5.3 0 0 0-7.1-5l-9.1 3.4a1.9 1.9 0 0 0-1.2 2.3 43.7 43.7 0 0 0 33.5 31.3 2 2 0 0 0 .4 0 1.9 1.9 0 0 0 1.8-1.3l.7-2.4a12.9 12.9 0 0 0-3.3-12.7zm-.4 11.6l-.2.7a40 40 0 0 1-28.3-26.6l7.4-2.7a1.5 1.5 0 0 1 2 1.4v2.8A10.1 10.1 0 0 0 86 306l5.8 2.5a11.6 11.6 0 0 1 3.7 2.4l1.1 1.2a9.1 9.1 0 0 1 2.3 9z" transform="translate(-66.2 -288.5)"/></g></g><g id="Group_59" data-name="Group 59" transform="translate(13.3 21)"><g id="Group_58" data-name="Group 58"><path id="Path_28" data-name="Path 28" class="cls-1" d="M83.6 95.5a1.9 1.9 0 0 0-2.4-.5A43.4 43.4 0 0 0 60 130a1.9 1.9 0 0 0 1.9 2 2 2 0 0 0 .7-.1l11.7-4.6a5.7 5.7 0 0 0 3.3-7.1 2 2 0 0 1 .5-2l5.4-5.5a9.8 9.8 0 0 0 2.9-7v-2.4a12.5 12.5 0 0 0-2.8-7.8zm-1 10.3a6 6 0 0 1-1.8 4.2l-5.4 5.5a5.7 5.7 0 0 0-1.4 5.8 2 2 0 0 1-1.1 2.5l-8.8 3.5a39.6 39.6 0 0 1 17.5-28 8.6 8.6 0 0 1 1 4z" transform="translate(-60 -94.8)"/></g></g><g id="Group_61" data-name="Group 61" transform="translate(49.1)"><g id="Group_60" data-name="Group 60"><path id="Path_29" data-name="Path 29" class="cls-1" d="M229.4 0a57.6 57.6 0 0 0-5.8.3 1.9 1.9 0 0 0 .2 3.8 1.7 1.7 0 0 0 .2 0 54.3 54.3 0 0 1 5.4-.3 1.9 1.9 0 1 0 0-3.7z" transform="translate(-221.9)"/></g></g><g id="Group_63" data-name="Group 63" transform="translate(0 52.9)"><g id="Group_62" data-name="Group 62"><path id="Path_30" data-name="Path 30" class="cls-1" d="M4.5 251.4a53.5 53.5 0 0 1-.7-8.9v-1.9a1.9 1.9 0 0 0-3.8 0v2a57.4 57.4 0 0 0 .8 9.4 1.9 1.9 0 0 0 1.9 1.6 1.8 1.8 0 0 0 .3 0 1.9 1.9 0 0 0 1.5-2.2z" transform="translate(0 -238.7)"/></g></g><g id="Group_65" data-name="Group 65" transform="translate(3.8 74.8)"><g id="Group_64" data-name="Group 64"><path id="Path_31" data-name="Path 31" class="cls-1" d="M25.6 348.6a52.8 52.8 0 0 1-5-9.6 1.9 1.9 0 0 0-3.5 1.4 56.7 56.7 0 0 0 5.3 10.2 1.9 1.9 0 1 0 3.2-2z" transform="translate(-17 -337.8)"/></g></g><g id="Group_67" data-name="Group 67" transform="translate(1.6 31.3)"><g id="Group_66" data-name="Group 66"><path id="Path_32" data-name="Path 32" class="cls-1" d="M13.5 141.2a1.9 1.9 0 0 0-2.5 1A56.3 56.3 0 0 0 7 153a1.9 1.9 0 0 0 1.4 2.3 2 2 0 0 0 .4 0 1.9 1.9 0 0 0 1.9-1.4 52.6 52.6 0 0 1 3.6-10.1 1.9 1.9 0 0 0-.9-2.6z" transform="translate(-7 -141)"/></g></g><g id="Group_69" data-name="Group 69" transform="translate(11.1 13.5)"><g id="Group_68" data-name="Group 68"><path id="Path_33" data-name="Path 33" class="cls-1" d="M61.3 61.7a1.9 1.9 0 0 0-2.7-.2 57.2 57.2 0 0 0-7.9 8.4 1.9 1.9 0 1 0 3 2.3 53.2 53.2 0 0 1 7.4-7.9 1.9 1.9 0 0 0 .2-2.6z" transform="translate(-50.3 -61)"/></g></g><g id="Group_71" data-name="Group 71" transform="translate(34.5 105.7)"><g id="Group_70" data-name="Group 70"><path id="Path_34" data-name="Path 34" class="cls-1" d="M168.7 480.5a52.7 52.7 0 0 1-10.4-3 1.9 1.9 0 1 0-1.4 3.6 56.4 56.4 0 0 0 11.2 3.1 2 2 0 0 0 .3 0 1.9 1.9 0 0 0 .3-3.7z" transform="translate(-155.8 -477.4)"/></g></g><g id="Group_73" data-name="Group 73" transform="translate(56.4 108.1)"><g id="Group_72" data-name="Group 72"><path id="Path_35" data-name="Path 35" class="cls-1" d="M269.6 489.8a1.9 1.9 0 0 0-2.3-1.4 53 53 0 0 1-10.7 1.4 1.9 1.9 0 0 0 0 3.7 56.8 56.8 0 0 0 11.6-1.5 1.9 1.9 0 0 0 1.4-2.2z" transform="translate(-254.7 -488.3)"/></g></g><g id="Group_75" data-name="Group 75" transform="translate(28 2.6)"><g id="Group_74" data-name="Group 74"><path id="Path_36" data-name="Path 36" class="cls-1" d="M140 13a1.9 1.9 0 0 0-2.4-1.3 56.5 56.5 0 0 0-10.6 4.7 1.9 1.9 0 0 0 1.9 3.3 52.6 52.6 0 0 1 9.9-4.4A1.9 1.9 0 0 0 140 13z" transform="translate(-126 -11.6)"/></g></g><g id="Group_77" data-name="Group 77" transform="translate(16 93.4)"><g id="Group_76" data-name="Group 76"><path id="Path_37" data-name="Path 37" class="cls-1" d="M83.5 429.4a53.2 53.2 0 0 1-8.3-6.9 1.9 1.9 0 1 0-2.7 2.7 57.2 57.2 0 0 0 9 7.3 1.9 1.9 0 0 0 2-3.1z" transform="translate(-72 -422)"/></g></g><g id="Group_79" data-name="Group 79" transform="translate(78.1 101.7)"><g id="Group_78" data-name="Group 78"><path id="Path_38" data-name="Path 38" class="cls-1" d="M361.4 460.2a1.9 1.9 0 0 0-2.6-.6 53 53 0 0 1-4.8 2.6 1.9 1.9 0 1 0 1.6 3.4 56.5 56.5 0 0 0 5.2-2.8 1.9 1.9 0 0 0 .6-2.6z" transform="translate(-353 -459.3)"/></g></g><g id="Group_81" data-name="Group 81" transform="translate(92.6 83.2)"><g id="Group_80" data-name="Group 80"><path id="Path_39" data-name="Path 39" class="cls-1" d="M438.5 376.2a1.9 1.9 0 0 0-2.6-.3l-17 13.2a1.9 1.9 0 0 0-.8 1.5v5.7a1.9 1.9 0 0 0 3.8 0v-4.8l16.3-12.6a1.9 1.9 0 0 0 .3-2.7z" transform="translate(-418.1 -375.5)"/></g></g><g id="Group_83" data-name="Group 83" transform="translate(86.9 94.5)"><g id="Group_82" data-name="Group 82"><path id="Path_40" data-name="Path 40" class="cls-1" d="M400.7 428.7l-5.7-1.9a1.9 1.9 0 1 0-1.2 3.6l5.7 1.9a1.9 1.9 0 1 0 1.2-3.6z" transform="translate(-392.5 -426.7)"/></g></g><g id="Group_85" data-name="Group 85" transform="translate(92.6 83.2)"><g id="Group_84" data-name="Group 84"><path id="Path_41" data-name="Path 41" class="cls-1" d="M435 391.8l-3.8-9.4a1.9 1.9 0 0 0-.8-1l-9.4-5.6a1.9 1.9 0 1 0-2 3.2l9 5.3 3.5 8.9a1.9 1.9 0 0 0 1.7 1.2 1.8 1.8 0 0 0 .7-.1 1.9 1.9 0 0 0 1-2.5z" transform="translate(-418.1 -375.5)"/></g></g></g></svg>