<svg xmlns="http://www.w3.org/2000/svg" width="31.42" height="31.42"><path d="M28.75 6.97l-.47.15-2.5.22-.7 1.13-.52-.16-1.99-1.8-.29-.93-.39-1-1.25-1.12-1.48-.3-.03.68 1.45 1.42.7.83-.79.42-.65-.2-.97-.4.03-.78-1.27-.53-.42 1.84-1.29.3.13 1.02 1.67.32.3-1.64 1.37.2.65.38h1.03l.7 1.42 1.87 1.9-.14.73-1.5-.2-2.6 1.32-1.88 2.25-.25 1h-.67l-1.26-.58-1.21.58.3 1.28.53-.61.93-.03-.06 1.16.77.22.77.87 1.26-.36 1.44.23 1.67.45.83.1 1.41 1.6 2.73 1.6-1.76 3.38-1.86.87-.71 1.92-2.7 1.8-.28 1.04a15.7 15.7 0 0 0 9.36-24z"/><path d="M17.52 23.92l-1.15-2.12 1.05-2.2-1.05-.3-1.18-1.19-2.61-.59-.87-1.81v1.08h-.38l-2.25-3.05v-2.51L7.43 8.54l-2.62.47H3.05l-.9-.58 1.14-.9-1.13.26a15.7 15.7 0 0 0 15.52 23.49l-.16-1.9s.72-2.83.72-2.93c0-.1-.72-2.53-.72-2.53zM5.84 5.07l2.79-.4 1.29-.7 1.44.42 2.31-.13.8-1.25 1.15.2 2.8-.27.78-.85 1.09-.73 1.54.23.56-.08A15.65 15.65 0 0 0 3.6 5.7h.01l2.24-.64zm10.53-3.5l1.6-.9 1.04.6-1.5 1.14-1.42.14-.64-.41.92-.58zm-4.75.12l.7.3.94-.3.5.88-2.14.56-1.03-.6s1-.65 1.03-.84z"/></svg>